<?xml version="1.0" encoding="UTF-8"?>
<svg id="Capa_2" xmlns="http://www.w3.org/2000/svg" viewBox="0 0 526.98 527.24">
  <defs>
    <style>
      .cls-1 {
        fill: #274c77;
      }
    </style>
  </defs>
  <g id="Capa_1-2" data-name="Capa_1">
    <g>
      <path class="cls-1" d="M327.21,311.5c0-2.61-2.11-5.66-5.33-7.67l-7.67-4.79c-2.83-1.77-6.03-2.28-8.1-1.27l-118.42,57.67,19.88,12.42,37.34-18.4c14.93,23.02,35.21,36.46,61.85,38.65l.02,41.75,20.33,12.71.1-131.06ZM258.27,342.68l36.03-18.27c1.24-.76,2.77-1.61,4.52-2.68,1.77-1.02,3.63-2.2,5.57-3.57,1.99-1.38,3.91-2.71,5.76-4.08-.11,1.47-.3,3.52-.62,6.12-.34,2.64-.6,5.23-.74,7.76-.19,2.55-.29,4.29-.3,5.32l-.85,40.25c-20.03-3.66-36.34-14.26-49.37-30.85Z"/>
      <path class="cls-1" d="M148.61,456.66l16.85-26.97,34.93-55.9c.54-.87,1.51-1.39,2.7-1.56l-18.39-11.49-42.19,67.52c-4.01,8.84-3.27,19.49,3.56,32.44l4.19,6.79c-.84-1.16-3.05-8.49-1.66-10.83Z"/>
      <path class="cls-1" d="M181.25,473.47l45.32-72.52c2.05-3.29-.94-8.79-6.62-11.74-4.62-2.41-9.36-1.97-11.15.74,0-.03.02-.06.04-.09l-41.16,65.87c3.15,5.86,7.75,11.9,13.58,17.73Z"/>
      <path class="cls-1" d="M210.98,494.89l44.09-70.55c2.05-3.29-.94-8.79-6.62-11.74-4.62-2.41-9.36-1.97-11.15.74,0-.03.02-.06.04-.09l-44.09,70.56c2.72,2.04,5.59,4.01,8.6,5.89,3.03,1.89,6.08,3.62,9.13,5.18Z"/>
      <path class="cls-1" d="M288.35,440.02l.06-.1s.06-.04.07-.09c.04-.04.07-.09.1-.13.01-.04.04-.07.06-.09v-.02c.26-.41.42-.84.5-1.3.61-3-1.77-7-5.97-9.63-4.89-3.06-10.41-3.08-12.32-.03l-45.31,72.51c7.79,2.67,15.25,4.16,21.89,4.41,15.54-24.89,40.18-64.34,40.92-65.51Z"/>
      <path class="cls-1" d="M306.83,437.17c.37,1.14.33,2.24-.22,3.11l-51.79,82.87c-1.49,2.27-9.05,3.5-10.46,3.25l7.94.79c14.64.46,24.53-3.54,30.72-11.02l42.19-67.52-18.39-11.49Z"/>
    </g>
    <g>
      <path class="cls-1" d="M312.04,200.16c-2.61-.04-5.68,2.05-7.72,5.24l-4.87,7.61c-1.8,2.81-2.34,6-1.36,8.09l56.39,119.03,12.64-19.75-18-37.53c23.17-14.68,36.83-34.82,39.31-61.43l41.74.43,12.92-20.2-131.05-1.5ZM342.47,269.43l-17.88-36.23c-.75-1.25-1.58-2.79-2.64-4.55-1-1.78-2.16-3.66-3.51-5.61-1.36-2-2.67-3.93-4.02-5.8,1.47.12,3.51.34,6.11.68,2.63.37,5.22.66,7.75.82,2.54.22,4.29.33,5.32.36l40.24,1.29c-3.88,19.98-14.65,36.19-31.38,49.04Z"/>
      <path class="cls-1" d="M455.27,380.31l-26.79-17.14-55.53-35.53c-.86-.55-1.37-1.53-1.53-2.72l-11.69,18.26,67.06,42.91c8.8,4.11,19.45,3.48,32.48-3.22l6.83-4.12c-1.17.83-8.52,2.96-10.85,1.55Z"/>
      <path class="cls-1" d="M472.42,347.85l-72.03-46.09c-3.26-2.09-8.8.85-11.81,6.49-2.46,4.6-2.07,9.34.62,11.16-.03,0-.06-.02-.09-.04l65.43,41.87c5.89-3.08,11.99-7.63,17.88-13.39Z"/>
      <path class="cls-1" d="M494.17,318.35l-70.08-44.84c-3.26-2.09-8.8.85-11.81,6.49-2.46,4.6-2.07,9.34.62,11.16-.03,0-.06-.02-.09-.04l70.08,44.85c2.07-2.7,4.07-5.55,5.98-8.54,1.93-3.01,3.69-6.05,5.28-9.08Z"/>
      <path class="cls-1" d="M440.13,240.4l-.1-.07s-.04-.06-.09-.07c-.04-.04-.09-.07-.13-.1-.04-.01-.07-.04-.09-.06h-.02c-.41-.26-.84-.43-1.3-.51-2.99-.64-7.02,1.69-9.7,5.87-3.11,4.86-3.2,10.38-.17,12.31l72.02,46.08c2.76-7.76,4.32-15.2,4.64-21.84-24.72-15.81-63.91-40.87-65.07-41.62Z"/>
      <path class="cls-1" d="M437.48,221.89c1.15-.36,2.25-.3,3.11.25l82.31,52.67c2.25,1.52,3.4,9.09,3.14,10.5l.88-7.93c.62-14.64-3.27-24.57-10.69-30.84l-67.06-42.91-11.69,18.26Z"/>
    </g>
    <g>
      <path class="cls-1" d="M200.53,214.14c-.06,2.61,1.99,5.7,5.16,7.78l7.56,4.95c2.79,1.83,5.98,2.41,8.08,1.44l119.63-55.11-19.61-12.85-37.72,17.6c-14.43-23.33-34.42-37.21-61-39.97l.88-41.74-20.06-13.14-2.91,131.03ZM270.12,184.45l-36.42,17.49c-1.26.73-2.8,1.55-4.58,2.59-1.79.98-3.68,2.12-5.65,3.44-2.02,1.33-3.96,2.62-5.84,3.96.14-1.47.38-3.51.75-6.1.39-2.63.71-5.21.9-7.74.25-2.54.38-4.28.41-5.32l1.72-40.23c19.94,4.09,36.03,15.04,48.7,31.91Z"/>
      <path class="cls-1" d="M382.21,72.85l-17.43,26.6-36.13,55.14c-.56.86-1.54,1.36-2.74,1.5l18.14,11.88,43.63-66.6c4.2-8.75,3.69-19.41-2.87-32.51l-4.04-6.87c.82,1.18,2.87,8.56,1.43,10.86Z"/>
      <path class="cls-1" d="M349.94,55.35l-46.86,71.53c-2.12,3.24.76,8.81,6.36,11.87,4.57,2.51,9.32,2.17,11.17-.5,0,.03-.02.06-.04.09l42.57-64.97c-3.02-5.92-7.5-12.07-13.19-18.02Z"/>
      <path class="cls-1" d="M320.68,33.29l-45.59,69.59c-2.12,3.24.76,8.81,6.36,11.87,4.57,2.51,9.32,2.17,11.17-.5,0,.03-.02.06-.04.09l45.6-69.6c-2.68-2.1-5.51-4.13-8.48-6.08-2.99-1.96-6.01-3.75-9.02-5.38Z"/>
      <path class="cls-1" d="M242.14,86.48l-.07.1s-.06.04-.07.09c-.04.04-.07.09-.1.13-.01.04-.04.07-.06.09v.02c-.26.41-.44.83-.53,1.29-.67,2.99,1.62,7.04,5.76,9.76,4.83,3.16,10.34,3.31,12.31.3l46.85-71.52c-7.73-2.84-15.15-4.48-21.79-4.88-16.07,24.55-41.55,63.46-42.32,64.62Z"/>
      <path class="cls-1" d="M223.61,88.94c-.35-1.15-.28-2.25.28-3.11L277.44,4.09c1.54-2.24,9.12-3.31,10.53-3.03l-7.92-.96c-14.63-.78-24.61,3.01-30.95,10.36l-43.63,66.6,18.14,11.88Z"/>
    </g>
    <g>
      <path class="cls-1" d="M213.31,325.79c2.61.09,5.72-1.93,7.83-5.08l5.03-7.51c1.86-2.77,2.47-5.95,1.53-8.06l-53.82-120.21-13.06,19.47,17.19,37.91c-23.48,14.18-37.57,34.02-40.62,60.57l-41.73-1.32-13.36,19.91,130.99,4.32ZM184.37,255.88l17.1,36.6c.72,1.27,1.52,2.82,2.54,4.61.96,1.8,2.08,3.7,3.38,5.68,1.31,2.03,2.58,3.99,3.89,5.89-1.47-.15-3.5-.41-6.1-.81-2.62-.42-5.2-.77-7.73-.99-2.54-.27-4.28-.43-5.31-.47l-40.2-2.15c4.3-19.9,15.43-35.87,32.43-48.35Z"/>
      <path class="cls-1" d="M73.99,142.6l26.41,17.71,54.75,36.72c.85.57,1.34,1.56,1.47,2.75l12.08-18.01-66.13-44.35c-8.71-4.3-19.37-3.9-32.54,2.52l-6.92,3.97c1.19-.81,8.59-2.78,10.88-1.31Z"/>
      <path class="cls-1" d="M56.14,174.68l71.02,47.63c3.22,2.16,8.82-.66,11.94-6.24,2.56-4.54,2.27-9.29-.38-11.17.03,0,.06.02.09.04l-64.51-43.26c-5.95,2.96-12.15,7.37-18.16,13Z"/>
      <path class="cls-1" d="M33.76,203.7l69.1,46.34c3.22,2.16,8.82-.66,11.94-6.24,2.56-4.54,2.27-9.29-.38-11.17.03,0,.06.02.09.04l-69.1-46.34c-2.13,2.66-4.19,5.46-6.17,8.41-1.99,2.97-3.82,5.97-5.47,8.96Z"/>
      <path class="cls-1" d="M86.11,282.8l.1.07s.04.06.09.07c.04.04.09.07.13.1.04.01.06.04.09.06h.02c.4.27.83.45,1.29.54,2.98.7,7.06-1.54,9.82-5.66,3.21-4.79,3.42-10.3.43-12.31l-71.01-47.62c-2.92,7.7-4.65,15.1-5.11,21.73,24.38,16.33,63.01,42.23,64.16,43.01Z"/>
      <path class="cls-1" d="M88.37,301.36c-1.16.34-2.25.26-3.1-.32L4.1,246.62c-2.22-1.56-3.21-9.16-2.91-10.56l-1.05,7.91c-.94,14.62,2.74,24.64,10.02,31.06l66.13,44.35,12.08-18.01Z"/>
    </g>
  </g>
</svg>